<svg id="visual" viewBox="0 0 648 1296" width="648" height="1296" xmlns="http://www.w3.org/2000/svg" xmlns:xlink="http://www.w3.org/1999/xlink" version="1.1"><rect x="0" y="0" width="648" height="1296" fill="#A8EFAF"></rect><defs><linearGradient id="grad1_0" x1="0%" y1="0%" x2="100%" y2="100%"><stop offset="30%" stop-color="#a8efaf" stop-opacity="1"></stop><stop offset="70%" stop-color="#a8efaf" stop-opacity="1"></stop></linearGradient></defs><defs><linearGradient id="grad2_0" x1="0%" y1="0%" x2="100%" y2="100%"><stop offset="30%" stop-color="#a8efaf" stop-opacity="1"></stop><stop offset="70%" stop-color="#a8efaf" stop-opacity="1"></stop></linearGradient></defs><g transform="translate(648, 0)"><path d="M0 486C-81.3 467.8 -162.7 449.6 -237.5 411.4C-312.3 373.1 -380.6 314.9 -420.9 243C-461.2 171.1 -473.6 85.6 -486 0L0 0Z" fill="#2c4e2f"></path></g><g transform="translate(0, 1296)"><path d="M0 -486C83.7 -472 167.5 -457.9 242 -419.2C316.5 -380.4 381.8 -317 420.9 -243C460 -169 473 -84.5 486 0L0 0Z" fill="#2c4e2f"></path></g></svg>