<svg id="visual" viewBox="0 0 450 900" width="450" height="900" xmlns="http://www.w3.org/2000/svg" xmlns:xlink="http://www.w3.org/1999/xlink" version="1.1"><rect x="0" y="0" width="450" height="900" fill="#A8EFAF"></rect><defs><linearGradient id="grad1_0" x1="0%" y1="0%" x2="100%" y2="100%"><stop offset="30%" stop-color="#2c251a" stop-opacity="1"></stop><stop offset="70%" stop-color="#2c251a" stop-opacity="1"></stop></linearGradient></defs><defs><linearGradient id="grad1_1" x1="0%" y1="0%" x2="100%" y2="100%"><stop offset="30%" stop-color="#2c251a" stop-opacity="1"></stop><stop offset="70%" stop-color="#797f53" stop-opacity="1"></stop></linearGradient></defs><defs><linearGradient id="grad1_2" x1="0%" y1="0%" x2="100%" y2="100%"><stop offset="30%" stop-color="#a8efaf" stop-opacity="1"></stop><stop offset="70%" stop-color="#797f53" stop-opacity="1"></stop></linearGradient></defs><defs><linearGradient id="grad2_0" x1="0%" y1="0%" x2="100%" y2="100%"><stop offset="30%" stop-color="#2c251a" stop-opacity="1"></stop><stop offset="70%" stop-color="#2c251a" stop-opacity="1"></stop></linearGradient></defs><defs><linearGradient id="grad2_1" x1="0%" y1="0%" x2="100%" y2="100%"><stop offset="30%" stop-color="#797f53" stop-opacity="1"></stop><stop offset="70%" stop-color="#2c251a" stop-opacity="1"></stop></linearGradient></defs><defs><linearGradient id="grad2_2" x1="0%" y1="0%" x2="100%" y2="100%"><stop offset="30%" stop-color="#797f53" stop-opacity="1"></stop><stop offset="70%" stop-color="#a8efaf" stop-opacity="1"></stop></linearGradient></defs><g transform="translate(450, 0)"><path d="M0 382.5C-54.5 379.8 -109 377.2 -144.7 349.2C-180.3 321.3 -197.1 268.1 -233.3 233.3C-269.6 198.6 -325.3 182.2 -353.4 146.4C-381.5 110.6 -382 55.3 -382.5 0L0 0Z" fill="#95b57b"></path><path d="M0 255C-36.3 253.2 -72.7 251.4 -96.4 232.8C-120.2 214.2 -131.4 178.7 -155.6 155.6C-179.7 132.4 -216.9 121.5 -235.6 97.6C-254.3 73.7 -254.7 36.9 -255 0L0 0Z" fill="#554f34"></path><path d="M0 127.5C-18.2 126.6 -36.3 125.7 -48.2 116.4C-60.1 107.1 -65.7 89.4 -77.8 77.8C-89.9 66.2 -108.4 60.7 -117.8 48.8C-127.2 36.9 -127.3 18.4 -127.5 0L0 0Z" fill="#2c251a"></path></g><g transform="translate(0, 900)"><path d="M0 -382.5C48.1 -369.7 96.2 -356.8 139.7 -337.2C183.2 -317.6 222 -291.3 259.5 -259.5C297 -227.7 333.1 -190.5 353.4 -146.4C373.7 -102.2 378.1 -51.1 382.5 0L0 0Z" fill="#95b57b"></path><path d="M0 -255C32.1 -246.4 64.1 -237.9 93.1 -224.8C122.1 -211.7 148 -194.2 173 -173C198 -151.8 222.1 -127 235.6 -97.6C249.1 -68.1 252.1 -34.1 255 0L0 0Z" fill="#554f34"></path><path d="M0 -127.5C16 -123.2 32.1 -118.9 46.6 -112.4C61.1 -105.9 74 -97.1 86.5 -86.5C99 -75.9 111 -63.5 117.8 -48.8C124.6 -34.1 126 -17 127.5 0L0 0Z" fill="#2c251a"></path></g></svg>