<svg id="visual" viewBox="0 0 450 900" width="450" height="900" xmlns="http://www.w3.org/2000/svg" xmlns:xlink="http://www.w3.org/1999/xlink" version="1.1"><rect x="0" y="0" width="450" height="900" fill="#A8EFAF"></rect><defs><linearGradient id="grad1_0" x1="0%" y1="100%" x2="100%" y2="0%"><stop offset="30%" stop-color="#2c251a" stop-opacity="1"></stop><stop offset="70%" stop-color="#2c251a" stop-opacity="1"></stop></linearGradient></defs><defs><linearGradient id="grad1_1" x1="0%" y1="100%" x2="100%" y2="0%"><stop offset="30%" stop-color="#2c251a" stop-opacity="1"></stop><stop offset="70%" stop-color="#797f53" stop-opacity="1"></stop></linearGradient></defs><defs><linearGradient id="grad1_2" x1="0%" y1="100%" x2="100%" y2="0%"><stop offset="30%" stop-color="#a8efaf" stop-opacity="1"></stop><stop offset="70%" stop-color="#797f53" stop-opacity="1"></stop></linearGradient></defs><defs><linearGradient id="grad2_0" x1="0%" y1="100%" x2="100%" y2="0%"><stop offset="30%" stop-color="#2c251a" stop-opacity="1"></stop><stop offset="70%" stop-color="#2c251a" stop-opacity="1"></stop></linearGradient></defs><defs><linearGradient id="grad2_1" x1="0%" y1="100%" x2="100%" y2="0%"><stop offset="30%" stop-color="#797f53" stop-opacity="1"></stop><stop offset="70%" stop-color="#2c251a" stop-opacity="1"></stop></linearGradient></defs><defs><linearGradient id="grad2_2" x1="0%" y1="100%" x2="100%" y2="0%"><stop offset="30%" stop-color="#797f53" stop-opacity="1"></stop><stop offset="70%" stop-color="#a8efaf" stop-opacity="1"></stop></linearGradient></defs><g transform="translate(450, 900)"><path d="M-382.5 0C-353.4 -39.8 -324.3 -79.6 -310.4 -128.6C-296.5 -177.5 -297.8 -235.6 -270.5 -270.5C-243.1 -305.3 -187.2 -316.9 -137.4 -331.7C-87.5 -346.5 -43.8 -364.5 0 -382.5L0 0Z" fill="#95b57b"></path><path d="M-255 0C-235.6 -26.5 -216.2 -53.1 -206.9 -85.7C-197.7 -118.4 -198.5 -157.1 -180.3 -180.3C-162.1 -203.5 -124.8 -211.3 -91.6 -221.1C-58.4 -231 -29.2 -243 0 -255L0 0Z" fill="#554f34"></path><path d="M-127.5 0C-117.8 -13.3 -108.1 -26.5 -103.5 -42.9C-98.8 -59.2 -99.3 -78.5 -90.2 -90.2C-81 -101.8 -62.4 -105.6 -45.8 -110.6C-29.2 -115.5 -14.6 -121.5 0 -127.5L0 0Z" fill="#2c251a"></path></g><g transform="translate(0, 0)"><path d="M382.5 0C356.6 41.5 330.7 83 316 130.9C301.3 178.7 297.8 233 270.5 270.5C243.1 308 191.8 328.7 142.7 344.6C93.7 360.5 46.8 371.5 0 382.5L0 0Z" fill="#95b57b"></path><path d="M255 0C237.7 27.7 220.4 55.3 210.6 87.3C200.9 119.2 198.6 155.3 180.3 180.3C162.1 205.3 127.9 219.1 95.2 229.7C62.5 240.3 31.2 247.7 0 255L0 0Z" fill="#554f34"></path><path d="M127.5 0C118.9 13.8 110.2 27.7 105.3 43.6C100.4 59.6 99.3 77.7 90.2 90.2C81 102.7 63.9 109.6 47.6 114.9C31.2 120.2 15.6 123.8 0 127.5L0 0Z" fill="#2c251a"></path></g></svg>