<svg id="visual" viewBox="0 0 450 900" width="450" height="900" xmlns="http://www.w3.org/2000/svg" xmlns:xlink="http://www.w3.org/1999/xlink" version="1.1"><rect x="0" y="0" width="450" height="900" fill="#A8EFAF"></rect><path d="M0 482L12.5 484.8C25 487.7 50 493.3 75 492.5C100 491.7 125 484.3 150 492.3C175 500.3 200 523.7 225 518.7C250 513.7 275 480.3 300 466.5C325 452.7 350 458.3 375 465C400 471.7 425 479.3 437.5 483.2L450 487L450 901L437.5 901C425 901 400 901 375 901C350 901 325 901 300 901C275 901 250 901 225 901C200 901 175 901 150 901C125 901 100 901 75 901C50 901 25 901 12.5 901L0 901Z" fill="#5d9262"></path><path d="M0 619L12.5 609.3C25 599.7 50 580.3 75 562.2C100 544 125 527 150 523C175 519 200 528 225 540.2C250 552.3 275 567.7 300 561C325 554.3 350 525.7 375 513.2C400 500.7 425 504.3 437.5 506.2L450 508L450 901L437.5 901C425 901 400 901 375 901C350 901 325 901 300 901C275 901 250 901 225 901C200 901 175 901 150 901C125 901 100 901 75 901C50 901 25 901 12.5 901L0 901Z" fill="#5f8654"></path><path d="M0 658L12.5 640.7C25 623.3 50 588.7 75 583.2C100 577.7 125 601.3 150 601.7C175 602 200 579 225 567C250 555 275 554 300 558.2C325 562.3 350 571.7 375 577.3C400 583 425 585 437.5 586L450 587L450 901L437.5 901C425 901 400 901 375 901C350 901 325 901 300 901C275 901 250 901 225 901C200 901 175 901 150 901C125 901 100 901 75 901C50 901 25 901 12.5 901L0 901Z" fill="#607a47"></path><path d="M0 670L12.5 662.7C25 655.3 50 640.7 75 644.7C100 648.7 125 671.3 150 676.8C175 682.3 200 670.7 225 667.8C250 665 275 671 300 665.5C325 660 350 643 375 627.3C400 611.7 425 597.3 437.5 590.2L450 583L450 901L437.5 901C425 901 400 901 375 901C350 901 325 901 300 901C275 901 250 901 225 901C200 901 175 901 150 901C125 901 100 901 75 901C50 901 25 901 12.5 901L0 901Z" fill="#5f6e3c"></path><path d="M0 630L12.5 645C25 660 50 690 75 702C100 714 125 708 150 696.7C175 685.3 200 668.7 225 671.7C250 674.7 275 697.3 300 693.7C325 690 350 660 375 646.3C400 632.7 425 635.3 437.5 636.7L450 638L450 901L437.5 901C425 901 400 901 375 901C350 901 325 901 300 901C275 901 250 901 225 901C200 901 175 901 150 901C125 901 100 901 75 901C50 901 25 901 12.5 901L0 901Z" fill="#5d6233"></path><path d="M0 764L12.5 757.7C25 751.3 50 738.7 75 734.2C100 729.7 125 733.3 150 740.2C175 747 200 757 225 761.2C250 765.3 275 763.7 300 755.3C325 747 350 732 375 725.3C400 718.7 425 720.3 437.5 721.2L450 722L450 901L437.5 901C425 901 400 901 375 901C350 901 325 901 300 901C275 901 250 901 225 901C200 901 175 901 150 901C125 901 100 901 75 901C50 901 25 901 12.5 901L0 901Z" fill="#5a562b"></path><path d="M0 745L12.5 753C25 761 50 777 75 784C100 791 125 789 150 778.3C175 767.7 200 748.3 225 744.2C250 740 275 751 300 751C325 751 350 740 375 739.7C400 739.3 425 749.7 437.5 754.8L450 760L450 901L437.5 901C425 901 400 901 375 901C350 901 325 901 300 901C275 901 250 901 225 901C200 901 175 901 150 901C125 901 100 901 75 901C50 901 25 901 12.5 901L0 901Z" fill="#554b25"></path><path d="M0 812L12.5 811.3C25 810.7 50 809.3 75 805.7C100 802 125 796 150 793.3C175 790.7 200 791.3 225 799C250 806.7 275 821.3 300 828.3C325 835.3 350 834.7 375 834.2C400 833.7 425 833.3 437.5 833.2L450 833L450 901L437.5 901C425 901 400 901 375 901C350 901 325 901 300 901C275 901 250 901 225 901C200 901 175 901 150 901C125 901 100 901 75 901C50 901 25 901 12.5 901L0 901Z" fill="#50401f"></path><path d="M0 850L12.5 845.8C25 841.7 50 833.3 75 832C100 830.7 125 836.3 150 839.7C175 843 200 844 225 845.3C250 846.7 275 848.3 300 850C325 851.7 350 853.3 375 851.2C400 849 425 843 437.5 840L450 837L450 901L437.5 901C425 901 400 901 375 901C350 901 325 901 300 901C275 901 250 901 225 901C200 901 175 901 150 901C125 901 100 901 75 901C50 901 25 901 12.5 901L0 901Z" fill="#49361b"></path></svg>